<svg width="66" height="46" viewBox="0 0 66 46" fill="none" xmlns="http://www.w3.org/2000/svg">
<path d="M4.13897 2.88247C3.92693 1.71952 5.15335 0.827065 6.1947 1.38653L22.1393 9.95276C23.2649 10.5575 23.0711 12.2276 21.8369 12.5584L14.7592 14.4556C14.4218 14.546 14.13 14.7584 13.9401 15.0516L9.95794 21.2026C9.2635 22.2752 7.61481 21.946 7.3856 20.6889L4.13897 2.88247Z" fill="#FB8EFA" stroke="white" stroke-width="2.34672" stroke-linecap="round" stroke-linejoin="round"/>
<rect x="19.1875" y="19.5334" width="46" height="26" rx="3.4995" fill="#FB8EFA"/>
<path d="M29.3933 37.5334V36.233H32.6033C33.3385 36.233 33.9476 36.0629 34.4304 35.7227C34.9133 35.3715 35.27 34.8887 35.5004 34.2741C35.7419 33.6596 35.8626 32.9462 35.8626 32.1342C35.8626 31.4208 35.7858 30.8063 35.6321 30.2905C35.4895 29.7637 35.2645 29.3303 34.9572 28.9901C34.6499 28.6499 34.2658 28.3975 33.8049 28.2328C33.344 28.0573 32.7953 27.9695 32.1588 27.9695H29.3933V26.669H32.1259C33.344 26.669 34.3427 26.883 35.1218 27.311C35.912 27.739 36.4936 28.3536 36.8667 29.1547C37.2398 29.9558 37.4264 30.9105 37.4264 32.0189C37.4264 32.7542 37.3441 33.4181 37.1795 34.0107C37.0149 34.6033 36.7844 35.1191 36.4881 35.5581C36.2028 35.9971 35.8626 36.3647 35.4675 36.661C35.0724 36.9573 34.6335 37.1768 34.1506 37.3195C33.6787 37.4621 33.1739 37.5334 32.6362 37.5334H29.3933ZM28.5867 37.5334V26.669H30.1011V37.5334H28.5867ZM43.3791 37.7474C42.6987 37.7474 42.1006 37.6487 41.5848 37.4511C41.08 37.2426 40.652 36.9463 40.3008 36.5622C39.9606 36.1781 39.6972 35.7227 39.5107 35.1959C39.3351 34.6692 39.2473 34.0766 39.2473 33.4181C39.2473 32.7487 39.3351 32.1342 39.5107 31.5745C39.6863 31.0148 39.9442 30.5264 40.2844 30.1094C40.6246 29.6924 41.0416 29.3742 41.5354 29.1547C42.0402 28.9242 42.6054 28.809 43.2309 28.809C43.8016 28.809 44.3119 28.9078 44.7618 29.1053C45.2227 29.2918 45.6178 29.5772 45.947 29.9613C46.2762 30.3454 46.5177 30.8337 46.6713 31.4263C46.8359 32.008 46.9018 32.6938 46.8689 33.484L40.202 33.5334V32.5128L45.9635 32.4634L45.4532 33.1548C45.5081 32.4634 45.4422 31.8927 45.2556 31.4428C45.0801 30.9928 44.8167 30.6526 44.4655 30.4222C44.1143 30.1917 43.7028 30.0765 43.2309 30.0765C42.7261 30.0765 42.2817 30.2082 41.8976 30.4716C41.5244 30.735 41.2336 31.1136 41.0251 31.6074C40.8166 32.1012 40.7123 32.6993 40.7123 33.4017C40.7123 34.4113 40.9373 35.185 41.3873 35.7227C41.8482 36.2495 42.5176 36.5128 43.3955 36.5128C43.7467 36.5128 44.0485 36.4744 44.3009 36.3976C44.5643 36.3098 44.7838 36.1946 44.9593 36.0519C45.1459 35.8983 45.2941 35.7227 45.4038 35.5252C45.5245 35.3167 45.6123 35.0972 45.6672 34.8667L47.0005 35.1795C46.8908 35.5746 46.7372 35.9312 46.5396 36.2495C46.3421 36.5677 46.0897 36.8366 45.7824 37.0561C45.4861 37.2756 45.1349 37.4457 44.7289 37.5664C44.3338 37.6871 43.8839 37.7474 43.3791 37.7474ZM52.6867 37.7474C52.0063 37.7474 51.4083 37.6487 50.8925 37.4511C50.3877 37.2426 49.9597 36.9463 49.6085 36.5622C49.2683 36.1781 49.0049 35.7227 48.8184 35.1959C48.6428 34.6692 48.555 34.0766 48.555 33.4181C48.555 32.7487 48.6428 32.1342 48.8184 31.5745C48.9939 31.0148 49.2518 30.5264 49.592 30.1094C49.9322 29.6924 50.3492 29.3742 50.8431 29.1547C51.3479 28.9242 51.9131 28.809 52.5386 28.809C53.1093 28.809 53.6196 28.9078 54.0695 29.1053C54.5304 29.2918 54.9255 29.5772 55.2547 29.9613C55.5839 30.3454 55.8254 30.8337 55.979 31.4263C56.1436 32.008 56.2095 32.6938 56.1765 33.484L49.5097 33.5334V32.5128L55.2712 32.4634L54.7609 33.1548C54.8157 32.4634 54.7499 31.8927 54.5633 31.4428C54.3877 30.9928 54.1244 30.6526 53.7732 30.4222C53.422 30.1917 53.0105 30.0765 52.5386 30.0765C52.0338 30.0765 51.5893 30.2082 51.2052 30.4716C50.8321 30.735 50.5413 31.1136 50.3328 31.6074C50.1243 32.1012 50.02 32.6993 50.02 33.4017C50.02 34.4113 50.245 35.185 50.6949 35.7227C51.1559 36.2495 51.8253 36.5128 52.7032 36.5128C53.0544 36.5128 53.3562 36.4744 53.6086 36.3976C53.872 36.3098 54.0914 36.1946 54.267 36.0519C54.4536 35.8983 54.6017 35.7227 54.7115 35.5252C54.8322 35.3167 54.92 35.0972 54.9749 34.8667L56.3082 35.1795C56.1985 35.5746 56.0448 35.9312 55.8473 36.2495C55.6498 36.5677 55.3974 36.8366 55.0901 37.0561C54.7938 37.2756 54.4426 37.4457 54.0366 37.5664C53.6415 37.6871 53.1916 37.7474 52.6867 37.7474Z" fill="white"/>
</svg>
