<svg width="110" height="43" viewBox="0 0 110 43" fill="none" xmlns="http://www.w3.org/2000/svg">
<path d="M0 16C0 7.16344 7.16344 0 16 0H94C102.837 0 110 7.16344 110 16V39C110 41.2091 108.209 43 106 43H16C7.16344 43 0 35.8366 0 27V16Z" fill="#1E2939"/>
<path d="M17.248 27V16.44H20.304L23.44 24.744H23.52L26.608 16.44H29.536V27H27.616L27.744 18.488H27.584L24.24 27H22.48L19.184 18.488H19.024L19.152 27H17.248ZM34.99 29.864C34.5633 29.864 34.1313 29.8213 33.694 29.736C33.2567 29.6507 32.846 29.5173 32.462 29.336C32.0887 29.1653 31.774 28.9413 31.518 28.664L32.206 27C32.5153 27.352 32.9153 27.6187 33.406 27.8C33.8967 27.9813 34.3927 28.072 34.894 28.072C35.4807 28.072 35.966 27.9493 36.35 27.704C36.734 27.4693 37.0273 27.1013 37.23 26.6C37.4327 26.0987 37.5447 25.4747 37.566 24.728L37.678 23.208H37.342C37.2353 23.9333 37.0593 24.5253 36.814 24.984C36.5687 25.432 36.2593 25.7627 35.886 25.976C35.5233 26.1787 35.0967 26.28 34.606 26.28C33.998 26.28 33.486 26.1253 33.07 25.816C32.654 25.5067 32.3393 25.048 32.126 24.44C31.9233 23.832 31.822 23.08 31.822 22.184V18.632H33.854V21.72C33.854 22.7227 33.9767 23.4533 34.222 23.912C34.4673 24.36 34.8407 24.584 35.342 24.584C35.6087 24.584 35.854 24.5147 36.078 24.376C36.302 24.2267 36.4887 24.0187 36.638 23.752C36.798 23.4747 36.9207 23.1333 37.006 22.728C37.102 22.3227 37.1553 21.8587 37.166 21.336V18.632H39.198V24.808C39.198 25.48 39.1393 26.088 39.022 26.632C38.9153 27.1653 38.75 27.6293 38.526 28.024C38.302 28.4293 38.0193 28.7707 37.678 29.048C37.3473 29.3253 36.958 29.528 36.51 29.656C36.062 29.7947 35.5553 29.864 34.99 29.864ZM47.0054 27L44.5414 16.44H46.7334L48.4934 25.24H48.6534L50.6214 16.44H53.2294L55.1814 25.24H55.3574L57.1334 16.44H59.2294L56.7174 27H53.8694L51.9654 18.2H51.8214L49.9174 27H47.0054ZM64.1136 27.208C63.2923 27.208 62.567 27.0427 61.9376 26.712C61.3083 26.3707 60.8123 25.8747 60.4496 25.224C60.0976 24.5627 59.9216 23.752 59.9216 22.792C59.9216 21.8107 60.103 21 60.4656 20.36C60.839 19.7093 61.3403 19.224 61.9696 18.904C62.599 18.584 63.3083 18.424 64.0976 18.424C64.919 18.424 65.6443 18.5893 66.2736 18.92C66.903 19.2507 67.399 19.7467 67.7616 20.408C68.1243 21.0587 68.3056 21.8693 68.3056 22.84C68.3056 23.8213 68.1243 24.6373 67.7616 25.288C67.399 25.9387 66.8976 26.424 66.2576 26.744C65.6283 27.0533 64.9136 27.208 64.1136 27.208ZM64.1936 25.672C64.6416 25.672 65.0203 25.5707 65.3296 25.368C65.639 25.1547 65.8736 24.84 66.0336 24.424C66.2043 24.008 66.2896 23.512 66.2896 22.936C66.2896 22.328 66.199 21.8107 66.0176 21.384C65.847 20.9467 65.5963 20.6107 65.2656 20.376C64.9456 20.1413 64.5403 20.024 64.0496 20.024C63.623 20.024 63.2496 20.1307 62.9296 20.344C62.6096 20.5467 62.3643 20.8507 62.1936 21.256C62.0336 21.6613 61.9536 22.1627 61.9536 22.76C61.9536 23.6987 62.151 24.4187 62.5456 24.92C62.951 25.4213 63.5003 25.672 64.1936 25.672ZM70.1204 27V22.808V18.632H71.8164L71.7844 21.512H72.0724C72.1684 20.8293 72.3177 20.264 72.5204 19.816C72.723 19.3573 73.0057 19.016 73.3684 18.792C73.731 18.5573 74.179 18.44 74.7124 18.44C74.819 18.44 74.931 18.4453 75.0484 18.456C75.1764 18.4667 75.315 18.4933 75.4644 18.536L75.3844 20.664C75.2137 20.6 75.0377 20.5573 74.8564 20.536C74.6857 20.504 74.5257 20.488 74.3764 20.488C73.9604 20.488 73.5977 20.5947 73.2884 20.808C72.9897 21.0213 72.7444 21.3253 72.5524 21.72C72.371 22.104 72.2324 22.5627 72.1364 23.096V27H70.1204ZM76.8704 27V15.624H78.8544V22.008C79.217 21.784 79.5637 21.5387 79.8944 21.272C80.225 20.9947 80.529 20.7067 80.8064 20.408C81.0837 20.1093 81.329 19.8107 81.5424 19.512C81.7557 19.2027 81.9317 18.9093 82.0704 18.632H84.3904C84.2197 19.048 83.9957 19.4587 83.7184 19.864C83.441 20.2693 83.1157 20.6427 82.7424 20.984C82.3797 21.3253 81.969 21.624 81.5104 21.88C81.0517 22.1253 80.561 22.296 80.0384 22.392V22.616C80.6997 22.52 81.2544 22.552 81.7024 22.712C82.1504 22.872 82.529 23.112 82.8384 23.432C83.1477 23.752 83.4037 24.1253 83.6064 24.552C83.8197 24.968 84.017 25.3947 84.1984 25.832L84.6144 27H82.3904L82.1344 26.232C81.9317 25.6987 81.7184 25.2293 81.4944 24.824C81.281 24.408 81.009 24.088 80.6784 23.864C80.3584 23.6293 79.9424 23.512 79.4304 23.512H78.8544V27H76.8704ZM89.3215 27.208C88.7562 27.208 88.2442 27.1493 87.7855 27.032C87.3375 26.9253 86.9535 26.7707 86.6335 26.568C86.3135 26.3547 86.0575 26.104 85.8655 25.816C85.6735 25.5173 85.5562 25.1867 85.5135 24.824L87.0975 24.232C87.1188 24.5093 87.2255 24.76 87.4175 24.984C87.6095 25.1973 87.8762 25.368 88.2175 25.496C88.5588 25.624 88.9695 25.688 89.4495 25.688C89.9828 25.688 90.3935 25.608 90.6815 25.448C90.9802 25.2773 91.1295 25.0373 91.1295 24.728C91.1295 24.504 91.0495 24.328 90.8895 24.2C90.7295 24.0613 90.4948 23.9493 90.1855 23.864C89.8868 23.768 89.5242 23.6773 89.0975 23.592C88.7028 23.5067 88.3028 23.4107 87.8975 23.304C87.5028 23.1867 87.1348 23.0373 86.7935 22.856C86.4628 22.664 86.1908 22.4187 85.9775 22.12C85.7748 21.8107 85.6735 21.4213 85.6735 20.952C85.6735 20.44 85.8068 19.9973 86.0735 19.624C86.3508 19.2507 86.7455 18.9573 87.2575 18.744C87.7802 18.5307 88.4095 18.424 89.1455 18.424C89.8388 18.424 90.4362 18.52 90.9375 18.712C91.4495 18.904 91.8655 19.1813 92.1855 19.544C92.5055 19.896 92.7082 20.3173 92.7935 20.808L91.1295 21.336C91.0975 21.0373 90.9962 20.7867 90.8255 20.584C90.6548 20.3707 90.4255 20.2107 90.1375 20.104C89.8495 19.9973 89.5135 19.944 89.1295 19.944C88.6388 19.944 88.2548 20.0293 87.9775 20.2C87.7002 20.3707 87.5615 20.6 87.5615 20.888C87.5615 21.1227 87.6468 21.3093 87.8175 21.448C87.9988 21.5867 88.2442 21.6987 88.5535 21.784C88.8735 21.8693 89.2362 21.9547 89.6415 22.04C90.0682 22.1253 90.4788 22.2267 90.8735 22.344C91.2788 22.4507 91.6415 22.5947 91.9615 22.776C92.2815 22.9573 92.5375 23.1973 92.7295 23.496C92.9215 23.784 93.0175 24.1573 93.0175 24.616C93.0175 25.1707 92.8682 25.6453 92.5695 26.04C92.2708 26.424 91.8442 26.7173 91.2895 26.92C90.7455 27.112 90.0895 27.208 89.3215 27.208Z" fill="white"/>
</svg>
