<svg width="278" height="129" viewBox="0 0 278 129" fill="none" xmlns="http://www.w3.org/2000/svg">
<g opacity="0.55" style="mix-blend-mode:plus-darker">
<path d="M49.6566 36.6119L41.9455 59.3394L42.4872 59.5231C43.0677 59.7201 43.6823 59.8135 44.2819 59.6864C46.2732 59.2638 51.0048 57.5375 53.3769 50.546C54.0802 48.473 55.8903 46.048 57.5727 44.0961C59.0527 42.3796 58.4238 39.5864 56.277 38.858L49.6566 36.6119ZM16.1924 86.1387L4.72735 82.5956L16.1924 86.1387ZM12.2147 104.29L0.261896 103.227L12.2147 104.29ZM12.8275 115.65L23.719 110.613H23.719L12.8275 115.65ZM101.275 56.5697L91.4898 49.6241L101.275 56.5697ZM110.608 37.8736L121.838 42.1027L110.608 37.8736ZM114.647 17.3128L126.643 17.6337L114.647 17.3128ZM101.486 13.1823L106.288 24.1798V24.1798L101.486 13.1823ZM90.8862 21.4725L82.3813 13.0069L90.8862 21.4725ZM80.3423 35.4731L90.4207 41.9865L80.3423 35.4731ZM69.526 56.6219L80.6944 61.0113V61.0113L69.526 56.6219ZM66.0884 72.7253L54.168 71.3456L66.0884 72.7253ZM67.5883 93.5357L55.9901 96.6149L67.5883 93.5357ZM70.0409 97.5358L61.6496 106.114L70.0409 97.5358ZM77.3998 101.716L81.897 90.5906L77.3998 101.716ZM131.192 62.31L120.788 56.3307V56.3307L131.192 62.31ZM141.35 36.2058L129.806 32.9296V32.9296L141.35 36.2058ZM129.422 25.8585L138.024 34.2255V34.2255L129.422 25.8585ZM118.387 42.1863L128.936 47.9061L118.387 42.1863ZM109.351 68.7942L121.143 71.0182V71.0182L109.351 68.7942ZM108.826 91.7511L97.3731 95.3334L108.826 91.7511ZM113.955 96.3896L109.835 107.66L113.955 96.3896ZM130.464 96.8498L131.487 108.806L130.464 96.8498ZM140.551 92.6441L134.229 82.4444V82.4444L140.551 92.6441ZM152.12 82.2219L143.261 74.1282L152.12 82.2219ZM162.273 67.9581L172.815 73.6918L162.273 67.9581ZM166.067 52.535L154.08 51.9735L166.067 52.535ZM159.541 51.9492L167.986 60.4744L159.541 51.9492ZM148.587 73.8724L137.203 70.0787V70.0787L148.587 73.8724ZM145.885 96.0573L133.957 97.3633L145.885 96.0573ZM199.959 61.6219L190.435 54.3211L199.959 61.6219ZM211.375 41.0909L200.293 36.4877V36.4877L211.375 41.0909ZM201.305 35.1692L209.957 43.4844L201.305 35.1692ZM189.428 61.9736L177.847 58.8321L189.428 61.9736ZM187.406 89.3153L175.41 89.6125L187.406 89.3153ZM250.052 50.2633L260.931 55.3292L250.052 50.2633ZM254.252 39.524L242.275 38.7782V38.7782L254.252 39.524ZM251.187 42.086L241.807 34.6013L251.187 42.086ZM236.836 64.3287L247.53 69.7738V69.7738L236.836 64.3287ZM228.058 86.4004L239.551 89.8505V89.8505L228.058 86.4004ZM226.622 105.9L214.795 107.932L226.622 105.9ZM228.992 107.566L232.481 96.0849L228.992 107.566ZM239.466 108.619L239.15 96.6232L239.466 108.619ZM248.302 106.374L243.539 95.3598L248.302 106.374ZM263.611 94.5741L272.193 102.961L272.396 102.754L272.588 102.537L263.611 94.5741ZM256.525 84.0008L277.077 96.3957L277.372 95.9059C277.689 95.381 277.912 94.8006 277.916 94.1877C277.929 92.152 277.255 87.1607 270.933 83.3477C269.058 82.2172 267.077 79.9302 265.53 77.8692C264.17 76.0563 261.307 76.0731 260.136 78.0143L256.525 84.0008ZM45.8011 47.9756L49.6566 36.6119C49.4398 36.5383 47.0753 35.6496 44.0232 36.0904C41.5108 36.4532 39.7661 37.5148 39.0863 37.9566C37.805 38.7892 36.8374 39.7752 36.5604 40.0521C35.6516 40.9607 34.268 42.4753 32.0614 44.9678L41.0461 52.9223L50.0309 60.8768C52.2904 58.3246 53.2122 57.3414 53.5281 57.0255C53.5861 56.9676 53.5223 57.0345 53.3747 57.1655C53.2733 57.2555 52.8335 57.6454 52.1642 58.0804C51.5881 58.4548 49.9132 59.4888 47.4537 59.844C46.1016 60.0392 44.8116 59.9879 43.6428 59.7771C42.6435 59.5968 41.8395 59.3034 41.9455 59.3394L45.8011 47.9756ZM41.0461 52.9223L32.0614 44.9678C27.587 50.0216 18.5779 60.4126 13.4004 67.0761L22.8762 74.4388L32.352 81.8015C37.0145 75.8008 45.5728 65.9123 50.0309 60.8768L41.0461 52.9223ZM22.8762 74.4388L13.4004 67.0761C10.761 70.4731 8.87381 73.2135 7.48248 75.8043C5.99111 78.5813 5.27971 80.8082 4.72735 82.5956L16.1924 86.1387L27.6574 89.6817C28.0787 88.3185 28.2492 87.8616 28.6263 87.1594C29.1035 86.2709 30.0714 84.7367 32.352 81.8015L22.8762 74.4388ZM16.1924 86.1387L4.72735 82.5956C2.38009 90.1912 0.787176 97.3212 0.261896 103.227L12.2147 104.29L24.1675 105.353C24.4899 101.729 25.5933 96.361 27.6574 89.6817L16.1924 86.1387ZM12.2147 104.29L0.261896 103.227C-0.051075 106.745 -0.067275 109.907 0.127129 112.559C0.283875 114.697 0.659636 117.928 1.93604 120.687L12.8275 115.65L23.719 110.613C23.9809 111.179 24.1039 111.593 24.1418 111.725C24.1887 111.889 24.1986 111.956 24.1877 111.899C24.1648 111.778 24.1081 111.421 24.0629 110.804C23.9731 109.579 23.9568 107.723 24.1675 105.353L12.2147 104.29ZM12.8275 115.65L1.93604 120.687C4.7303 126.729 10.4622 127.858 12.1331 128.116C13.896 128.388 15.9078 128.386 17.2819 128.385L17.2747 116.385L17.2676 104.385C16.5049 104.385 16.0194 104.379 15.6964 104.368C15.33 104.355 15.4459 104.343 15.7963 104.397C16.0575 104.438 17.3684 104.64 18.9396 105.496C20.8817 106.555 22.6464 108.293 23.719 110.613L12.8275 115.65ZM17.2747 116.385L17.2819 128.385C20.8248 128.383 27.3477 128.147 33.5397 126.831L31.0448 115.093L28.5499 103.355C24.7273 104.168 20.1076 104.383 17.2676 104.385L17.2747 116.385ZM31.0448 115.093L33.5397 126.831C40.1887 125.417 45.6477 122.906 51.3903 119.694L45.5322 109.221L39.6742 98.7477C35.0057 101.359 31.9156 102.64 28.5499 103.355L31.0448 115.093ZM45.5322 109.221L51.3903 119.694C57.0467 116.53 63.4554 112.397 69.0228 108.343L61.9586 98.6423L54.8943 88.942C50.0343 92.4813 44.4289 96.0882 39.6742 98.7477L45.5322 109.221ZM61.9586 98.6423L69.0228 108.343C74.6815 104.222 79.2937 100.296 83.4629 96.404L75.2745 87.6319L67.0861 78.8598C63.5278 82.1814 59.6631 85.4691 54.8943 88.942L61.9586 98.6423ZM75.2745 87.6319L83.4629 96.404C87.7198 92.4303 91.4299 88.5574 96.4098 82.5465L87.1691 74.8908L77.9284 67.2351C73.5677 72.4986 70.5566 75.6202 67.0861 78.8598L75.2745 87.6319ZM87.1691 74.8908L96.4098 82.5465C101.261 76.6907 107.322 68.783 111.061 63.5153L101.275 56.5697L91.4898 49.6241C88.1129 54.3818 82.4176 61.8165 77.9284 67.2351L87.1691 74.8908ZM101.275 56.5697L111.061 63.5153C116.947 55.2232 119.464 48.4069 121.838 42.1027L110.608 37.8736L99.3782 33.6445C97.0677 39.78 95.4421 44.0557 91.4898 49.6241L101.275 56.5697ZM110.608 37.8736L121.838 42.1027C126.645 29.3391 126.551 21.0749 126.643 17.6337L114.647 17.3128L102.651 16.9919C102.58 19.6577 102.749 24.6928 99.3782 33.6445L110.608 37.8736ZM114.647 17.3128L126.643 17.6337C126.724 14.6153 126.185 10.6966 123.553 7.08948L113.859 14.1622L104.165 21.2349C102.664 19.1781 102.644 17.2704 102.651 16.9919L114.647 17.3128ZM113.859 14.1622L123.553 7.08948C120.706 3.18643 116.766 1.65423 114.405 0.975876L111.091 12.5091L107.777 24.0424C107.766 24.0393 107.322 23.9159 106.678 23.5392C105.992 23.1376 105.027 22.4161 104.165 21.2349L113.859 14.1622ZM111.091 12.5091L114.405 0.975876C111.817 0.232179 108.97 -0.0877161 106.149 0.0205708L106.609 12.0117L107.07 24.0029C107.281 23.9948 107.473 24.0044 107.626 24.0219C107.784 24.0401 107.837 24.0596 107.777 24.0424L111.091 12.5091ZM106.609 12.0117L106.149 0.0205708C103.138 0.136132 99.9577 0.755776 96.6848 2.18473L101.486 13.1823L106.288 24.1798C106.461 24.104 106.585 24.0687 106.676 24.0486C106.77 24.028 106.892 24.0097 107.07 24.0029L106.609 12.0117ZM101.486 13.1823L96.6848 2.18473C90.5297 4.87196 85.6461 9.72697 82.3813 13.0069L90.8862 21.4725L99.3911 29.9381C102.996 26.317 104.906 24.7832 106.288 24.1798L101.486 13.1823ZM90.8862 21.4725L82.3813 13.0069C77.7125 17.6973 73.9969 23.1834 70.2639 28.9596L80.3423 35.4731L90.4207 41.9865C94.1419 36.2287 96.6772 32.6646 99.3911 29.9381L90.8862 21.4725ZM80.3423 35.4731L70.2639 28.9596C64.4067 38.0224 60.5691 46.6056 58.3576 52.2325L69.526 56.6219L80.6944 61.0113C82.5135 56.3829 85.6735 49.332 90.4207 41.9865L80.3423 35.4731ZM69.526 56.6219L58.3576 52.2325C55.7645 58.8304 54.8573 65.3899 54.168 71.3456L66.0884 72.7253L78.0088 74.105C78.6773 68.3296 79.3334 64.4744 80.6944 61.0113L69.526 56.6219ZM66.0884 72.7253L54.168 71.3456C53.0772 80.7697 54.237 90.0118 55.9901 96.6149L67.5883 93.5357L79.1865 90.4565C78.0834 86.3015 77.3143 80.1053 78.0088 74.105L66.0884 72.7253ZM67.5883 93.5357L55.9901 96.6149C57.4291 102.035 60.3643 104.857 61.6496 106.114L70.0409 97.5358L78.4322 88.9576C77.892 88.4291 78.2375 88.7311 78.5476 89.1746C78.7243 89.4273 78.8771 89.6936 78.9971 89.9539C79.1141 90.2079 79.1683 90.388 79.1865 90.4565L67.5883 93.5357ZM70.0409 97.5358L61.6496 106.114C65.0915 109.481 69.5171 111.473 72.9027 112.841L77.3998 101.716L81.897 90.5906C80.4992 90.0256 79.5638 89.586 78.9313 89.2355C78.292 88.8812 78.2372 88.7668 78.4322 88.9576L70.0409 97.5358ZM77.3998 101.716L72.9027 112.841C75.9874 114.088 79.1063 114.654 81.6852 114.967L83.1314 103.055L84.5776 91.1422C83.0119 90.9521 82.2233 90.7225 81.897 90.5906L77.3998 101.716ZM83.1314 103.055L81.6852 114.967C84.8007 115.345 88.1717 115.359 91.9208 114.69L89.8127 102.876L87.7045 91.0631C86.5643 91.2666 85.6067 91.2671 84.5776 91.1422L83.1314 103.055ZM89.8127 102.876L91.9208 114.69C95.8595 113.987 99.893 112.571 104.468 109.821L98.2872 99.5355L92.1061 89.2499C90.9649 89.9357 90.1004 90.3343 89.4496 90.581C88.8147 90.8216 88.263 90.9634 87.7045 91.0631L89.8127 102.876ZM98.2872 99.5355L104.468 109.821C108.765 107.239 113.416 103.531 117.535 99.7851L109.462 90.9068L101.389 82.0285C97.9024 85.1985 94.5502 87.7811 92.1061 89.2499L98.2872 99.5355ZM109.462 90.9068L117.535 99.7851C121.848 95.8632 125.859 91.6276 130.169 85.8607L120.557 78.6766L110.945 71.4925C107.636 75.9201 104.681 79.0347 101.389 82.0285L109.462 90.9068ZM120.557 78.6766L130.169 85.8607C134.352 80.2645 138.646 73.4235 141.596 68.2893L131.192 62.31L120.788 56.3307C118.151 60.9195 114.382 66.8943 110.945 71.4925L120.557 78.6766ZM131.192 62.31L141.596 68.2893C146.849 59.1491 150.074 49.4173 152.894 39.482L141.35 36.2058L129.806 32.9296C127.126 42.3711 124.537 49.807 120.788 56.3307L131.192 62.31ZM141.35 36.2058L152.894 39.482C154.544 33.6692 154.729 28.769 154.878 26.7417L142.91 25.8627L130.943 24.9838C130.752 27.5736 130.663 29.9084 129.806 32.9296L141.35 36.2058ZM142.91 25.8627L154.878 26.7417C154.915 26.2322 155.263 23.1489 154.459 20.1737C153.922 18.1895 152.864 16.0032 150.965 14.0986C149.175 12.3024 147.228 11.3543 145.826 10.8334L141.648 22.0826L137.47 33.3318C136.776 33.0742 135.363 32.4418 133.969 31.0429C132.466 29.5359 131.667 27.8288 131.29 26.4352C130.97 25.2526 130.984 24.3967 130.984 24.3621C130.984 24.2975 130.986 24.3928 130.943 24.9838L142.91 25.8627ZM141.648 22.0826L145.826 10.8334C143.283 9.8892 140.665 9.67245 138.789 9.66014C136.727 9.64662 134.335 9.87552 131.955 10.5265L135.122 22.1012L138.288 33.6759C138.207 33.6982 138.218 33.689 138.321 33.6767C138.419 33.6651 138.531 33.659 138.631 33.6596C138.739 33.6603 138.747 33.6681 138.644 33.6534C138.588 33.6453 138.468 33.6261 138.293 33.5847C138.125 33.545 137.839 33.4691 137.47 33.3318L141.648 22.0826ZM135.122 22.1012L131.955 10.5265C126.609 11.989 123.126 15.1205 120.82 17.4914L129.422 25.8585L138.024 34.2255C138.321 33.9201 138.532 33.7193 138.685 33.584C138.834 33.4519 138.9 33.4073 138.894 33.411C138.883 33.4184 138.81 33.4676 138.683 33.5282C138.553 33.5903 138.416 33.6411 138.288 33.6759L135.122 22.1012ZM129.422 25.8585L120.82 17.4914C115.889 22.5614 111.838 29.0894 107.838 36.4664L118.387 42.1863L128.936 47.9061C132.706 40.9528 135.486 36.8348 138.024 34.2255L129.422 25.8585ZM118.387 42.1863L107.838 36.4664C101.756 47.6825 98.9676 59.1022 97.5591 66.5702L109.351 68.7942L121.143 71.0182C122.338 64.6862 124.542 56.0099 128.936 47.9061L118.387 42.1863ZM109.351 68.7942L97.5591 66.5702C96.3307 73.0834 95.9497 78.9939 95.9966 83.7227C96.0396 88.0644 96.451 92.3852 97.3731 95.3334L108.826 91.7511L120.279 88.1689C120.428 88.6472 120.032 87.166 119.995 83.4848C119.963 80.1908 120.231 75.8577 121.143 71.0182L109.351 68.7942ZM108.826 91.7511L97.3731 95.3334C98.7245 99.654 101.5 102.335 102.897 103.58L110.879 94.6195L118.861 85.6592C118.742 85.5535 118.938 85.7097 119.221 86.0813C119.529 86.4862 119.972 87.1869 120.279 88.1689L108.826 91.7511ZM110.879 94.6195L102.897 103.58C105.123 105.563 107.534 106.819 109.835 107.66L113.955 96.3896L118.074 85.119C118 85.0918 118.074 85.1128 118.238 85.2063C118.411 85.3053 118.632 85.4551 118.861 85.6592L110.879 94.6195ZM113.955 96.3896L109.835 107.66C112.978 108.809 116.646 109.128 119.693 109.224C123.074 109.33 127.059 109.185 131.487 108.806L130.464 96.8498L129.44 84.8936C125.645 85.2185 122.637 85.3046 120.45 85.2357C119.358 85.2013 118.583 85.1315 118.085 85.0627C117.515 84.9839 117.602 84.9464 118.074 85.119L113.955 96.3896ZM130.464 96.8498L131.487 108.806C138.867 108.174 144.742 104.165 146.873 102.844L140.551 92.6441L134.229 82.4444C132.705 83.389 131.806 83.9515 130.853 84.4037C129.985 84.8159 129.565 84.8829 129.44 84.8936L130.464 96.8498ZM140.551 92.6441L146.873 102.844C153.192 98.9273 157.548 94.0725 160.98 90.3157L152.12 82.2219L143.261 74.1282C139.612 78.1219 137.324 80.5263 134.229 82.4444L140.551 92.6441ZM152.12 82.2219L160.98 90.3157C165.802 85.0377 169.72 79.3811 172.815 73.6918L162.273 67.9581L151.731 62.2244C149.505 66.3184 146.694 70.3701 143.261 74.1282L152.12 82.2219ZM162.273 67.9581L172.815 73.6918C177.337 65.3779 177.87 57.0241 178.054 53.0965L166.067 52.535L154.08 51.9735C153.929 55.1998 153.523 58.9314 151.731 62.2244L162.273 67.9581ZM166.067 52.535L178.054 53.0965C178.138 51.287 178.007 48.5668 176.646 45.7383C175.115 42.5565 172.674 40.5501 170.368 39.4079L165.042 50.1617L159.717 60.9155C158.086 60.1075 156.19 58.578 155.019 56.1445C154.018 54.0642 154.062 52.3636 154.08 51.9735L166.067 52.535ZM165.042 50.1617L170.368 39.4079C166.17 37.3296 161.822 37.7268 158.944 38.5819L162.362 50.0848L165.78 61.5878C165.078 61.7965 164.309 61.9093 163.465 61.8848C162.7 61.8626 161.323 61.7104 159.717 60.9155L165.042 50.1617ZM162.362 50.0848L158.944 38.5819C155.304 39.6634 152.762 41.7732 151.096 43.4239L159.541 51.9492L167.986 60.4744C168.273 60.1899 167.48 61.0828 165.78 61.5878L162.362 50.0848ZM159.541 51.9492L151.096 43.4239C147.204 47.2796 144.472 52.0232 142.429 56.4115C140.36 60.8573 138.671 65.6719 137.203 70.0787L148.587 73.8724L159.972 77.6662C161.401 73.3777 162.733 69.6644 164.187 66.5394C165.669 63.3568 166.965 61.4863 167.986 60.4744L159.541 51.9492ZM148.587 73.8724L137.203 70.0787C132.795 83.3078 133.405 92.3247 133.957 97.3633L145.885 96.0573L157.814 94.7513C157.509 91.966 156.98 86.6446 159.972 77.6662L148.587 73.8724ZM145.885 96.0573L133.957 97.3633C134.531 102.605 137.673 106.088 140.692 107.947C143.092 109.425 145.575 109.976 146.199 110.127L149.016 98.4623L151.833 86.7976C151.037 86.6054 152.042 86.7513 153.275 87.5103C154.042 87.9824 155.134 88.8207 156.09 90.1904C157.091 91.6258 157.647 93.2237 157.814 94.7513L145.885 96.0573ZM149.016 98.4623L146.199 110.127C149.238 110.861 152.396 110.994 155.946 110.497L154.282 98.6129L152.617 86.7289C152.118 86.7988 151.876 86.7942 151.817 86.7919C151.786 86.7907 151.783 86.7891 151.799 86.7914C151.806 86.7924 151.813 86.7936 151.821 86.7951C151.824 86.7957 151.827 86.7963 151.829 86.7968C151.831 86.7971 151.831 86.7973 151.832 86.7974C151.832 86.7975 151.833 86.7975 151.833 86.7976C151.833 86.7976 151.833 86.7976 151.833 86.7976L149.016 98.4623ZM154.282 98.6129L155.946 110.497C159.317 110.025 163.102 108.968 166.878 107.355L162.166 96.3192L157.454 85.283C155.425 86.1491 153.685 86.5794 152.617 86.7289L154.282 98.6129ZM162.166 96.3192L166.878 107.355C170.936 105.623 174.774 103.32 179.618 99.5682L172.269 90.0816L164.92 80.5951C161.278 83.4163 159.2 84.5377 157.454 85.283L162.166 96.3192ZM172.269 90.0816L179.618 99.5682C184.335 95.914 190.199 90.7171 195.673 85.0499L187.041 76.7132L178.41 68.3765C173.699 73.2539 168.688 77.676 164.92 80.5951L172.269 90.0816ZM187.041 76.7132L195.673 85.0499C201.172 79.3564 206.054 73.3944 209.482 68.9227L199.959 61.6219L190.435 54.3211C187.378 58.3087 183.096 63.5255 178.41 68.3765L187.041 76.7132ZM199.959 61.6219L209.482 68.9227C215.577 60.972 219.462 52.905 222.457 45.694L211.375 41.0909L200.293 36.4877C197.687 42.7614 194.743 48.702 190.435 54.3211L199.959 61.6219ZM211.375 41.0909L222.457 45.694C224.148 41.6242 224.464 39.1055 224.599 36.8169L212.62 36.1109L200.641 35.405C200.623 35.7018 200.619 35.7279 200.621 35.7158C200.626 35.6659 200.637 35.591 200.651 35.5255C200.677 35.4049 200.643 35.6464 200.293 36.4877L211.375 41.0909ZM212.62 36.1109L224.599 36.8169C224.647 36.0102 225.234 30.3083 221.443 25.5001L212.019 32.9291L202.595 40.358C201.174 38.5545 200.811 36.8097 200.708 36.1012C200.61 35.4249 200.662 35.0485 200.641 35.405L212.62 36.1109ZM212.019 32.9291L221.443 25.5001C217.592 20.615 211.972 19.8458 209.878 19.6738L208.896 31.6335L207.913 43.5932C207.711 43.5766 207.155 43.5161 206.372 43.2142C205.639 42.932 204.025 42.1716 202.595 40.358L212.019 32.9291ZM208.896 31.6335L209.878 19.6738C206.618 19.4059 203.377 19.9433 200.274 21.3293L205.168 32.286L210.062 43.2428C209.827 43.3478 209.484 43.4661 209.056 43.539C208.628 43.6122 208.234 43.6195 207.913 43.5932L208.896 31.6335ZM205.168 32.286L200.274 21.3293C197.234 22.6871 194.742 24.6809 192.653 26.8541L201.305 35.1692L209.957 43.4844C210.245 43.1845 210.402 43.0643 210.424 43.0476C210.439 43.0363 210.317 43.1287 210.062 43.2428L205.168 32.286ZM201.305 35.1692L192.653 26.8541C183.988 35.8705 180.465 49.1806 177.847 58.8321L189.428 61.9736L201.01 65.1151C204.023 54.0054 206.33 47.2587 209.957 43.4844L201.305 35.1692ZM189.428 61.9736L177.847 58.8321C174.383 71.6007 175.257 83.4597 175.41 89.6125L187.406 89.3153L199.402 89.0181C199.22 81.6432 198.663 73.7668 201.01 65.1151L189.428 61.9736ZM187.406 89.3153L175.41 89.6125C175.514 93.7971 176.167 96.7999 177 99.4633L188.453 95.8817L199.906 92.3C199.744 91.7807 199.646 91.3932 199.574 90.9803C199.5 90.559 199.425 89.9465 199.402 89.0181L187.406 89.3153ZM188.453 95.8817L177 99.4633C177.975 102.581 179.412 105.45 181.854 108.493L191.214 100.983L200.573 93.4735C200.247 93.0677 200.132 92.8593 200.095 92.7893C200.062 92.7269 200.004 92.6105 199.906 92.3L188.453 95.8817ZM191.214 100.983L181.854 108.493C183.943 111.097 186.903 113.973 189.678 115.961L196.664 106.204L203.65 96.4466C202.822 95.8542 201.428 94.5386 200.573 93.4735L191.214 100.983ZM196.664 106.204L189.678 115.961C193.247 118.516 196.401 119.501 199.453 120.025L201.484 108.199L203.515 96.3717C203.31 96.3365 203.248 96.3196 203.262 96.3234C203.272 96.3259 203.301 96.3335 203.344 96.3473C203.388 96.3612 203.439 96.3792 203.496 96.4012C203.552 96.4233 203.605 96.4462 203.653 96.4687C203.701 96.4911 203.736 96.5096 203.757 96.5215C203.801 96.5457 203.769 96.5319 203.65 96.4466L196.664 106.204ZM201.484 108.199L199.453 120.025C201.962 120.456 204.737 120.646 207.589 120.519L207.057 108.531L206.524 96.543C205.379 96.5939 204.323 96.5105 203.515 96.3717L201.484 108.199ZM207.057 108.531L207.589 120.519C211.308 120.354 215.504 119.56 220.583 116.258L214.041 106.198L207.499 96.1378C207.156 96.3612 206.942 96.4715 206.842 96.5185C206.75 96.5622 206.741 96.5589 206.799 96.5419C206.824 96.5346 206.851 96.5278 206.876 96.5225C206.901 96.5172 206.914 96.5154 206.91 96.516C206.896 96.5179 206.801 96.5307 206.524 96.543L207.057 108.531ZM214.041 106.198L220.583 116.258C224.91 113.444 229.642 108.943 234.029 103.572L224.736 95.9805L215.442 88.3891C212.042 92.5517 209.097 95.0991 207.499 96.1378L214.041 106.198ZM224.736 95.9805L234.029 103.572C238.577 98.0041 242.824 91.3806 247.688 82.2775L237.105 76.6222L226.521 70.967C222.099 79.2414 218.682 84.4231 215.442 88.3891L224.736 95.9805ZM237.105 76.6222L247.688 82.2775C252.502 73.2688 257.961 61.7061 260.931 55.3292L250.052 50.2633L239.174 45.1974C236.207 51.5687 230.992 62.5981 226.521 70.967L237.105 76.6222ZM250.052 50.2633L260.931 55.3292C262.688 51.5562 263.874 48.8525 264.644 46.8234C265.395 44.8454 266.078 42.6918 266.229 40.2699L254.252 39.524L242.275 38.7782C242.349 37.6005 242.668 37.0894 242.206 38.3064C241.763 39.4724 240.888 41.5162 239.174 45.1974L250.052 50.2633ZM254.252 39.524L266.229 40.2699C266.343 38.4363 266.117 34.8527 263.345 31.6065C260.346 28.0945 256.399 27.3127 253.893 27.3556C249.924 27.4235 247.183 29.4194 246.687 29.7659C244.761 31.114 243.128 32.946 241.807 34.6013L251.187 42.086L260.567 49.5706C261.478 48.4279 261.392 48.7691 260.446 49.4309C260.151 49.6371 259.583 50.009 258.778 50.3686C258.093 50.6744 256.49 51.3146 254.304 51.3521C251.909 51.393 248.042 50.6439 245.094 47.1913C242.373 44.0044 242.168 40.5068 242.275 38.7782L254.252 39.524ZM251.187 42.086L241.807 34.6013C234.846 43.3244 229.558 52.1768 226.143 58.8836L236.836 64.3287L247.53 69.7738C250.336 64.2624 254.778 56.8246 260.567 49.5706L251.187 42.086ZM236.836 64.3287L226.143 58.8836C221.129 68.7292 218.143 77.6921 216.564 82.9502L228.058 86.4004L239.551 89.8505C240.898 85.3648 243.402 77.8803 247.53 69.7738L236.836 64.3287ZM228.058 86.4004L216.564 82.9502C213.398 93.4995 213.836 102.35 214.795 107.932L226.622 105.9L238.449 103.869C237.994 101.22 237.644 96.2038 239.551 89.8505L228.058 86.4004ZM226.622 105.9L214.795 107.932C215.576 112.479 218.392 115.369 220.752 116.916C222.682 118.179 224.654 118.79 225.503 119.048L228.992 107.566L232.481 96.0849C231.914 95.9126 232.772 96.0979 233.905 96.8402C234.584 97.2852 235.592 98.0731 236.523 99.3393C237.506 100.677 238.168 102.234 238.449 103.869L226.622 105.9ZM228.992 107.566L225.503 119.048C231.051 120.734 236.598 120.699 239.782 120.615L239.466 108.619L239.15 96.6232C236.323 96.6977 234.086 96.5727 232.481 96.0849L228.992 107.566ZM239.466 108.619L239.782 120.615C244.918 120.479 249.492 118.933 253.066 117.388L248.302 106.374L243.539 95.3598C241.309 96.3241 239.95 96.6021 239.15 96.6232L239.466 108.619ZM248.302 106.374L253.066 117.388C260.95 113.978 266.904 108.374 272.193 102.961L263.611 94.5741L255.028 86.1874C249.975 91.3587 246.798 93.9502 243.539 95.3598L248.302 106.374ZM263.611 94.5741L272.588 102.537C273.759 101.216 274.579 100.213 275.397 99.0348L265.54 92.1909L255.683 85.3469C255.617 85.4426 255.554 85.5292 255.435 85.6762C255.295 85.8504 255.06 86.1304 254.633 86.6115L263.611 94.5741ZM265.54 92.1909L275.397 99.0348C276.103 98.0188 276.697 97.0253 277.077 96.3957L266.801 90.1983L256.525 84.0008C256.082 84.7366 255.877 85.0682 255.683 85.3469L265.54 92.1909Z" fill="#FFEE00"/>
</g>
</svg>
